<svg xmlns="http://www.w3.org/2000/svg" xmlns:xlink="http://www.w3.org/1999/xlink" width="805.191" height="849.779" viewBox="0 0 805.191 849.779"><defs><style>.a{fill:#f5f5f5;}.b{fill:#f3911e;}.c{filter:url(#a);}</style><filter id="a" x="0" y="0" width="805.191" height="849.779" filterUnits="userSpaceOnUse"><feOffset dy="16" input="SourceAlpha"/><feGaussianBlur stdDeviation="20" result="b"/><feFlood flood-color="#1d2d41" flood-opacity="0.098"/><feComposite operator="in" in2="b"/><feComposite in="SourceGraphic"/></filter></defs><g transform="translate(-86.648 -122.393)"><g class="c" transform="matrix(1, 0, 0, 1, 86.65, 122.39)"><path class="a" d="M-3419.559-3573.989l-1.354-2.034-.192-1.13.138-.626.39-1.075.079-.643v-2.17l.179-.79.786-2.328,1.752-13.546.4-1.655.091-.663.067-1.844-.021,0,.044-1.129,1.779-6.71.178-2-.147-1.731.1-1.039.72-1.245.151-.529.052-.556-.021-.523-.137-.258-.552-.469-.156-.259.224-.658.2-1.375.814-1.867.34-1.883.376-1.068,4.45-9.116,1.536-1.6.239-.437.07-.275.481-1.1.238-.24.705-.5.248-.261.689-1.562.475-.663,1.029-.389.233-.259.294-.222.476-.03.376.149.329.27.462.548,4.685-1.881.838-.674.85-1.026.664-1.162,1.493-5.294.093-.788.42-.536,2.12-2.123.531-.674.552-2.949.126-3.9.191-1,.517-1.657.361-.755.85-1.205.005-.457-.156-.373-.087-.3-.01-.533.071-.317.379-.841.087-.3.208-.163.942-.094,1.017-.293,1.375-1.2,1.431-1.642.415-.9.286-.936.169-1.005.054-1.095-.352-1.087-.834-.165-1.757.484.3-.858.726-1.474.4-.527,2.017-1.877.183-.307,3.187-7.372.477-.607.46-.267.549-.524,1.885-3.259.6-3.121.461-.851.644-.921L-3370-3703l2.061-2.373.136-.286.7-.524.3-.31.224-.493.218-.964.165-.483.659-1.054.675-.861.527-.87.206-1.141.094-2.047-.159-.88-.546-1.044.137-.26.15-.373-.5.373-.046.539.084.635-.095.663-.307.348-1.091.767-.4.181-.564.012-.372-.109-.4.1-.673.595-.447.592-.309.551-.643,1.537-.554,1-.111.3-.088.556-.4.919-.09.42-.366.562-1.988,1.8-.636-.467.282-.782.934-1.116.229-.676,1.545-2.964,2.64-3.646.271-.729.615-.817.668-.742,3.107-2.65,1.382-.529,1.841-1.137.554-.549,1.4-.13,1.132-.73.892-1.032.678-1.006,1.743-2.054,1.191-1.762,1.641-1.182.7-.664.288-.841.353-.55,3.893-3.215,2.346-2.516,2.933-4.458,1.088-1.241,1.369-1.236.775-.538.861-.426.882-.273,1.845-.319.9-.517,1.428-1.131-.028-1.069.664-1.349,1.009-1.25,1.031-.824,1.066-.58.82-.653.527-.933.41-3.039,1.014-2.765.369-2.182.59-1.339.151-.633-.077-.767-.177-.694-.051-.707.3-.757-.315-.285.265-.663.2-.751.122-.783.027-.742-.112-.738-.4-1.005-.089-.618.042-4.14-.31-1.172,1.3-5.442.307-.744,1.28-4.738,1.949-2.76.568-.481.345-.454,1.266-3.068.289-2.106.1-.288.4-.843.23-1.482,1.718-4.353,3.182-4.5,1.146-2.091.241-.628.118-.934.684-2.1.355-.663-.159-.759.426-2.643-.124-.694-.4-1.433.115-.476.332-.532.445-1.37.238-.535,2.386-3.111.4-.3,2.032-.458,2.305-1.243,3.537-3.465.592-.794.4-.8.537-.708.993-.457,4.688-.5.815-.375,4.434-2.285,7.747-5.571,5.2-3.36,2.513-2.865,2.565-5.184.881-2.531.817-3.858,1.236-2.768,1.26-6.017.8-1.8,3.521-5.225.011-.273-.3-.436-.005-.27.579-.338,2.284-5.419,1.414-4.873.091-1.005.2-.856.847-1.842.115-.859,5.255,0,.5-.58,1.8-2.934,1-3.5.486-.993.663-.675.826-.481,4.015-1.519,7.719-1.341,6.157.13,7.606-2.505,11.665-2,.47-.326.962-1.013.2-.127.75-.168,22.172-9.749,1.4-1.1,1.021-1.327,1.685-2.843.657-.7.765-.681.641-.766.267-.965.376-.755,2.533-1.759,2-2.452.333-.7,1.769-1.1.335-.372.351-.665.216-.312,1.457-1.184.148-.2.874-1.469,1.2-1.261.656-.438,12.146-6.229,2.918-1.958,3.489-1.789,1.651-1.1,5.234-4.953,4.4-6.648,1.149-1.393.805-.674,1.616-.6.664-.742,1.031-1.645,1.072-1.369.5-.872.205-.891.218-.406,1.531-1.109.2-.32.377-1.027,1.759-2.633.254-.541.1-1.019.252-1.1.385-.979.456-.735,2.032-1.879.324-.6.256-.782,1.779-2.39,5.528-6.009,4.361-7.721,2.678-6.383.423-1.823.716-6.26.785-3.27.112-.973-.18-1.311-.475-.636-.655-.463-.727-.756-.474-.849-1.09-2.476-.355-1.632-.357-.229-.472-.051-.488-.179-.377-.383-.786-1.328-3.047-2.052-.908-.058-.983-.214-.622-.7.08-1.891.9-1.855,1.136-1.755.8-1.6.284-1.108.029-.611-.167-.475-.3-.442-.021-.308.111-.362.068-.589-.32-9.712-.164-.885-.683-1.776.535-1.16,1.115-7.023.1-2.841-.187-1.163-.445-.628-.57-.463-.545-.674,1.337-1.715.993-1.716.993-3,.486-.714.793-.71.268-.359.236-.886.6-.638.251-.569.573-.824.212-.466.594-4,.34-.787,3.9-4.236,1.722-2.422.32-.334.623-.48.354-.381.32-.483.369-.857.213-.362,5.018-5.187.512-1.021.329-.742.493-2.015.079-.817.207-.619,1.541-1.931.6-1.379.329-1.552.222-5.178-.18-.25-.8-.4-.18-.364.107-1.09.269-.769,1.156-2.252.314-1,.078-1-.336-.8-.376-.514-.374-.727-.254-.841-.03-.842.815-1.541,6.293-5.335,4.848-5.762,4.125-2.911,1.44-1.369,4.827-6.5,5.348-5.926.334-.595.045-.644-.029-1.093.4-.642,3.526-4.186.339-.2.366.1.42.451.366.108,1.043-.059.773-.18,1.56-.8,1.547-1.255,2.494-3.077,1.514-1.25,1.773-.743,5.821-1.341,6.138-2.743,1.976-.5,1.054-.446.927-1.179,1.065-.478,2.847-.885,1.7-.888.792-.182.792-.441.7-.868.724-.653.837.223.5-.312.407.068.4.194.468.056.409-.162.744-.466,1.247-.238.886-.368.806-.455.559-.426,1.439-1.868,1.229-.6,1.2-1.463.82-.279-.293.375.854.3.909-.277,3.627-2.432,1.628-1.461,1.553-.856,1.719-.628,1.541-.253.728-.269,1.349-1.2,1.534-.543,4.455-3.573,4.487-4.885,3.763-6.3,2.812-6.054,4.684-7.047.434-.878.717-2.022.983-1.582,9.2-19.405,3.692-12.631,7.736-19.581.228-1,.073-1.272.185-.745.917-2.067.888-2.817.072-.442.127-.481.564-.8.124-.517.258-2.456.294-1.216.379-.792.82-.865,1.475-.244,3.917.583.523-.1,1.15-1.158.536-.4.769-.421.773-.192.542.265.745-.35,1.015-.021,1,.245.729.484,2.509-1.5.719-.641,1.525-1.769.792-.7.887-.43,2.082-.308.38,1.16.481,1.064.663.935.974.888-.214.759.144,1.308.644,2.711.2,2.2.164.627.259.487.336.384.249.041.726-.118.217.077.06.3-.086.79.026.338.714,2.772.448,1.045.889.846,1.811,1.287,1.505,1.44,3.606,5.142.66.52,1.039.18.774.247.841.585,1.438,1.329,1.207,1.674.734.815,1.88.653,2.325,2.184,1.71.98,6.061,1.853,5.713,1.291,5.043,1.49,1.214.093.877-.243,2.458-1.563,5.924-1.032,3.573-1.615,3.636-.761,1.785-.848.431.6.4,1.308.331.571.488.4.517.214,1.186.094,2.276-.2.968-.479.391-.933.358-1.419.885-.968,1.138-.446,1.106.155.822.564,1.79,1.646.9.63,3.2.5,1.134.656.512.014.543-.058.462.012.463.154.837.4.44.148,2.168.183,1.824-.383,5.29-1.891.9-.57,1.933-2.051.449-.289.354.026.4.211.458.176.535-.084,1.357-1.382,1.666-4.115,1.083-1.607-.08-.554.2-.428.4-.162.5.266.19.424-.222.9.194.614-.43,1.588.573,2,.064.242-.827.84.132,1.438.887.956,1.293-.472.612.9-.39.472-.183.788-.045.869.156,1.679.2.674.364.616.623.782,1.1.8,1.5.484,3.1.306-1.863-1.5-3.253-3.761-.638-1.1.2-.407.578.456,2.071,2.236.327.552,2.029,2.105,1.825,1.047,2.2.771,4.421.627,1.947-.172,1.023-.257.693-.428.9-1.029.817-.658.868-.215,4.064,1.573.949.143,1.015.336,1.127.637,1.113.416.038,2.027.4,1.376.766,1.023,1.3.492,1.588,1.151,1.329,1.253,1.438.925,1.916.184.541.42.169.609.056.708.213.716.583.7,2.264,1.4,1.443,1.368,4.482,2.84.775.792-.156.377-.552.424-1.041,2.326-2.234,3.463-.348.876,5.136,5.28,1.551.465.48.274-4.545,5.517,1.633,1.94,1.078,2.277,3.04,9.46.219,1.367-.1,1.025-1.989,8.242-.141,2.4.385,2.509.446,1.489-.024.558-.333.752-.429.547-.495.437-.414.513-.2.786.258.8.656.454,1.475.527.747.554.465.6,1.917,4.6.2,1.681-.541,1.384-.638.951-.8,2.833-.587,1.282-.444,1.29,0,5,.39,1.663,2.163,2.1.764,1.444.578,1.591.88,1.25,1.1,1.021,1.243.9.714.7.28,1.045-.01,1.183-.132,1.1-.1.521-.177.474-.249.423-.32.346-1.813,1.308,5.776,9.653,1.393,1.188,2.712,1.005,11.917,9.161.661,1.135-2.467,2.767-1.416,1.085-1.581.653-1.767.254-.689.365-.693.9-.427.888-.567,1.812-.77,5.185.012.426-.059.412-.272.536-.261.266-.7.559-.162.31.188.822.686.01,1.583-.634.82-.009.886.274.692.613.212,1.041-.841,1.781-1.674.4c-16.587-.756-33.168-1.564-49.753-2.333l-4.231-.2-7.653,2.133-7.914.667-2.45,1.385-.935,2.709-.218,4.723-.618,2.117-1.532,1.5q-8.452,2.776-16.9,5.547l-4.217,2.181-1.582.132-1.817-.414-3.527-1.308-1.787-.3-1.661.024-1.8.314-1.493.833-.738,1.609-.188,6.021-.233,1.943.13,1.451.665,1,1,.652,2.07.709.456.271.324.378.256.665-.12.324-2.349,1.719-.543.67-.174.907.268,3.749-.089,1.132-.9,1.523-.284.973.148.859.508.442.707.047.762-.336,1.246-1.177.634-.336.743.191.608.648,1.169,1.87.761.726,1.534.756.5.449.407.92.194.877.056.966-.094.953-.26.841-1.25,1.721-2.271.935-2.514.353-4.2-.1-6.781,1.283-1.384.662-6.048,6.684-1.326,1.007-4.352,1.915-5.176,3.126-3.028.7-2.566.206-14.883,5.582-.977.609-.841,1.01-2.553,4.315-2.993,6.6-2.18,3-7.247,7.964-2.677,2.168-4.43,2.153-1.271,1.067-2.441,1.205-8.275.9-10.705,2.51-1.75-.238-1.763-.538-1.752-.258-1.733.617-.727.663-.5.583-.575.442-.961.225-.883-.065-2.536-.781-.823.012-2.492.557-.823-.182-1.53-.876-.725-.211-.723.22-.451.559-.159.829.34,2.076-.038.827-.6,1.79.073,1.207-.216,1.1-.437,1.033-.608.968-2.971,2.116-3.436-.131-7.1-1.962-5.356.048-5.133-1.1-1.454.271-6.852,3.944-.622.559-3.095,4.015-3.186,2.892-.885.328-.941.114-.954-.045-1.88-.316-1.993-.1-1.457.648-2.6,2.631-.653.53-2.052,1.063-2.6,2.443-4.515,3.054-3.892,3.7-1.424,1-4.8,2.134-2.908,1.973-2.822,2.692-.7.42-1.5.679-.641.513-1.461,2.584-.541.552-1.939,1.07-1.919,1.534-5.455,2.966-.8.7-.48.909-.151,1.3v48.4h-.05v19.388l.007,3.744.006,4.409,0,4.937.005,5.27.005,5.434v5.429l.005,5.245,0,4.91.005,4.372v3.723l.005,2.862v4.617l-.294.611-.833.244h-141.031v116.687l-.172,1.575-.567.743-4.344,1.189-9.347,4.467-1.539.469-7.178,1.023-2.6.9-2.676,1.856-4.595,3.176-5.336,3.672-4.269,2.946-.813,1.057-3.648,5.129-1.38,2.936-.564,3.085.447,2.934,2.069,5.911.559,2.969,1.406,22.907,1.456,22.812.468,7.363h-6.246l-1.763.009h-76.7l-14.629.023h-68.775l-.4.371-.743,3.942-.819,4.368-1.81,5.2-.282,1.436-1,4.124-.158,1.346,1.067,4.9Z" transform="translate(3481.1 4346.61)"/></g><g transform="translate(314.067 166.393)"><path class="b" d="M18,3A10.492,10.492,0,0,0,7.5,13.5C7.5,21.375,18,33,18,33S28.5,21.375,28.5,13.5A10.492,10.492,0,0,0,18,3Zm0,14.25a3.75,3.75,0,1,1,3.75-3.75A3.751,3.751,0,0,1,18,17.25Z" transform="translate(322.15 -1.473)"/><path class="b" d="M18,3A10.492,10.492,0,0,0,7.5,13.5C7.5,21.375,18,33,18,33S28.5,21.375,28.5,13.5A10.492,10.492,0,0,0,18,3Zm0,14.25a3.75,3.75,0,1,1,3.75-3.75A3.751,3.751,0,0,1,18,17.25Z" transform="translate(452.15 38.527)"/><path class="b" d="M18,3A10.492,10.492,0,0,0,7.5,13.5C7.5,21.375,18,33,18,33S28.5,21.375,28.5,13.5A10.492,10.492,0,0,0,18,3Zm0,14.25a3.75,3.75,0,1,1,3.75-3.75A3.751,3.751,0,0,1,18,17.25Z" transform="translate(362.15 99.527)"/><path class="b" d="M18,3A10.492,10.492,0,0,0,7.5,13.5C7.5,21.375,18,33,18,33S28.5,21.375,28.5,13.5A10.492,10.492,0,0,0,18,3Zm0,14.25a3.75,3.75,0,1,1,3.75-3.75A3.751,3.751,0,0,1,18,17.25Z" transform="translate(-154.85 625.527)"/><path class="b" d="M18,3A10.492,10.492,0,0,0,7.5,13.5C7.5,21.375,18,33,18,33S28.5,21.375,28.5,13.5A10.492,10.492,0,0,0,18,3Zm0,14.25a3.75,3.75,0,1,1,3.75-3.75A3.751,3.751,0,0,1,18,17.25Z" transform="translate(-23.85 410.054)"/><path class="b" d="M14.743,3A7.292,7.292,0,0,0,7.5,10.35C7.5,15.862,14.743,24,14.743,24s7.243-8.137,7.243-13.65A7.292,7.292,0,0,0,14.743,3Zm0,9.975A2.625,2.625,0,1,1,17.33,10.35,2.607,2.607,0,0,1,14.743,12.975Z" transform="translate(85.892 385.579)"/><path class="b" d="M14.743,3A7.292,7.292,0,0,0,7.5,10.35C7.5,15.862,14.743,24,14.743,24s7.243-8.137,7.243-13.65A7.292,7.292,0,0,0,14.743,3Zm0,9.975A2.625,2.625,0,1,1,17.33,10.35,2.607,2.607,0,0,1,14.743,12.975Z" transform="translate(-38.337 518.579)"/><path class="b" d="M18,3A10.492,10.492,0,0,0,7.5,13.5C7.5,21.375,18,33,18,33S28.5,21.375,28.5,13.5A10.492,10.492,0,0,0,18,3Zm0,14.25a3.75,3.75,0,1,1,3.75-3.75A3.751,3.751,0,0,1,18,17.25Z" transform="translate(138.15 245.527)"/><path class="b" d="M18,3A10.492,10.492,0,0,0,7.5,13.5C7.5,21.375,18,33,18,33S28.5,21.375,28.5,13.5A10.492,10.492,0,0,0,18,3Zm0,14.25a3.75,3.75,0,1,1,3.75-3.75A3.751,3.751,0,0,1,18,17.25Z" transform="translate(138.15 245.527)"/><path class="b" d="M18,3A10.492,10.492,0,0,0,7.5,13.5C7.5,21.375,18,33,18,33S28.5,21.375,28.5,13.5A10.492,10.492,0,0,0,18,3Zm0,14.25a3.75,3.75,0,1,1,3.75-3.75A3.751,3.751,0,0,1,18,17.25Z" transform="translate(148.65 148.527)"/><path class="b" d="M18,3A10.492,10.492,0,0,0,7.5,13.5C7.5,21.375,18,33,18,33S28.5,21.375,28.5,13.5A10.492,10.492,0,0,0,18,3Zm0,14.25a3.75,3.75,0,1,1,3.75-3.75A3.751,3.751,0,0,1,18,17.25Z" transform="translate(148.65 148.527)"/><path class="b" d="M18,3A10.492,10.492,0,0,0,7.5,13.5C7.5,21.375,18,33,18,33S28.5,21.375,28.5,13.5A10.492,10.492,0,0,0,18,3Zm0,14.25a3.75,3.75,0,1,1,3.75-3.75A3.751,3.751,0,0,1,18,17.25Z" transform="translate(230.386 178.527)"/><path class="b" d="M18,3A10.492,10.492,0,0,0,7.5,13.5C7.5,21.375,18,33,18,33S28.5,21.375,28.5,13.5A10.492,10.492,0,0,0,18,3Zm0,14.25a3.75,3.75,0,1,1,3.75-3.75A3.751,3.751,0,0,1,18,17.25Z" transform="translate(249.15 73.743)"/><path class="b" d="M13.952,3A6.447,6.447,0,0,0,7.5,9.452c0,4.839,6.452,11.982,6.452,11.982S20.4,14.29,20.4,9.452A6.447,6.447,0,0,0,13.952,3Zm0,8.756a2.3,2.3,0,1,1,2.3-2.3A2.305,2.305,0,0,1,13.952,11.756Z" transform="translate(380.199 85.311)"/><path class="b" d="M13.952,3A6.447,6.447,0,0,0,7.5,9.452c0,4.839,6.452,11.982,6.452,11.982S20.4,14.29,20.4,9.452A6.447,6.447,0,0,0,13.952,3Zm0,8.756a2.3,2.3,0,1,1,2.3-2.3A2.305,2.305,0,0,1,13.952,11.756Z" transform="translate(206.199 111.311)"/><path class="b" d="M13.952,3A6.447,6.447,0,0,0,7.5,9.452c0,4.839,6.452,11.982,6.452,11.982S20.4,14.29,20.4,9.452A6.447,6.447,0,0,0,13.952,3Zm0,8.756a2.3,2.3,0,1,1,2.3-2.3A2.305,2.305,0,0,1,13.952,11.756Z" transform="translate(305.199 126.311)"/><path class="b" d="M13.952,3A6.447,6.447,0,0,0,7.5,9.452c0,4.839,6.452,11.982,6.452,11.982S20.4,14.29,20.4,9.452A6.447,6.447,0,0,0,13.952,3Zm0,8.756a2.3,2.3,0,1,1,2.3-2.3A2.305,2.305,0,0,1,13.952,11.756Z" transform="translate(439.247 28.527)"/><path class="b" d="M13.952,3A6.447,6.447,0,0,0,7.5,9.452c0,4.839,6.452,11.982,6.452,11.982S20.4,14.29,20.4,9.452A6.447,6.447,0,0,0,13.952,3Zm0,8.756a2.3,2.3,0,1,1,2.3-2.3A2.305,2.305,0,0,1,13.952,11.756Z" transform="translate(421.247 13.527)"/><path class="b" d="M13.952,3A6.447,6.447,0,0,0,7.5,9.452c0,4.839,6.452,11.982,6.452,11.982S20.4,14.29,20.4,9.452A6.447,6.447,0,0,0,13.952,3Zm0,8.756a2.3,2.3,0,1,1,2.3-2.3A2.305,2.305,0,0,1,13.952,11.756Z" transform="translate(366.199 29.311)"/><path class="b" d="M13.952,3A6.447,6.447,0,0,0,7.5,9.452c0,4.839,6.452,11.982,6.452,11.982S20.4,14.29,20.4,9.452A6.447,6.447,0,0,0,13.952,3Zm0,8.756a2.3,2.3,0,1,1,2.3-2.3A2.305,2.305,0,0,1,13.952,11.756Z" transform="translate(421.247 64.527)"/><path class="b" d="M13.952,3A6.447,6.447,0,0,0,7.5,9.452c0,4.839,6.452,11.982,6.452,11.982S20.4,14.29,20.4,9.452A6.447,6.447,0,0,0,13.952,3Zm0,8.756a2.3,2.3,0,1,1,2.3-2.3A2.305,2.305,0,0,1,13.952,11.756Z" transform="translate(277.199 50.094)"/></g></g></svg>